<svg width="48" height="49" viewBox="0 0 48 49" fill="none" xmlns="http://www.w3.org/2000/svg">
<g clip-path="url(#clip0_1_587)">
<path d="M24 48.8C37.2548 48.8 48 38.0548 48 24.8C48 11.5452 37.2548 0.799988 24 0.799988C10.7452 0.799988 0 11.5452 0 24.8C0 38.0548 10.7452 48.8 24 48.8Z" fill="#4B4D63"/>
<path fill-rule="evenodd" clip-rule="evenodd" d="M28.0124 13.8C27.0151 13.8459 25.7904 14.4789 25.0647 15.3159C24.4072 16.0627 23.8408 17.2617 23.9992 18.4147C25.1107 18.5056 26.2665 17.8496 26.97 17.0127C27.6726 16.1528 28.1487 14.9768 28.0124 13.8ZM27.9903 18.6416C26.4257 18.4827 24.9293 19.5686 24.1355 19.5686C23.3417 19.5686 22.117 18.6637 20.825 18.6866C19.1241 18.7316 17.5596 19.6816 16.6755 21.1974C14.9295 24.2742 16.2445 28.7988 17.9675 31.2867C18.8064 32.4857 19.8268 33.8656 21.1418 33.7976C22.4117 33.7526 22.8878 32.9836 24.4302 32.9836C25.9496 32.9836 26.4027 33.7976 27.7408 33.7755C29.1009 33.7526 29.9628 32.5307 30.8018 31.3097C31.777 29.9068 32.1628 29.3868 32.1849 29.3188C32.1628 29.2959 29.5319 27.441 29.4867 24.4322C29.4637 21.8984 31.5504 20.6774 31.6637 20.6095C30.4841 18.8905 28.6478 18.6637 27.9903 18.6416Z" fill="white"/>
</g>
<defs>
<clipPath id="clip0_1_587">
<rect width="48" height="48" fill="white" transform="translate(0 0.799988)"/>
</clipPath>
</defs>
</svg>
