<svg width="48" height="49" viewBox="0 0 48 49" fill="none" xmlns="http://www.w3.org/2000/svg">
<g clip-path="url(#clip0_1_582)">
<path d="M24 48.8C37.2548 48.8 48 38.0548 48 24.8C48 11.5452 37.2548 0.799988 24 0.799988C10.7452 0.799988 0 11.5452 0 24.8C0 38.0548 10.7452 48.8 24 48.8Z" fill="#1877F2"/>
<path fill-rule="evenodd" clip-rule="evenodd" d="M28.2792 25.5233L28.8493 21.7515H25.2831V19.3038C25.2831 18.2719 25.7812 17.266 27.3786 17.266H29V14.0549C29 14.0549 27.5285 13.8 26.1217 13.8C23.1845 13.8 21.2648 15.6064 21.2648 18.8767V21.7515H18V25.5233H21.2648V34.6415C21.9195 34.7457 22.5905 34.8 23.274 34.8C23.9575 34.8 24.6285 34.7457 25.2831 34.6415V25.5233H28.2792Z" fill="white"/>
</g>
<defs>
<clipPath id="clip0_1_582">
<rect width="48" height="48" fill="white" transform="translate(0 0.799988)"/>
</clipPath>
</defs>
</svg>
