<svg width="21" height="22" viewBox="0 0 21 22" fill="none" xmlns="http://www.w3.org/2000/svg">
<path d="M14.7254 14.1108C13.9995 15.2515 12.8588 15.9774 11.5107 16.2885C9.43668 16.807 7.15528 15.9774 5.91088 14.1108L15.555 11.9331L17.1105 11.5183L20.0141 10.7924C20.0141 10.1702 19.9104 9.4443 19.8067 8.8221C18.666 3.63709 13.3773 0.318692 8.08858 1.56309C2.79988 2.80749 -0.51852 7.9925 0.72588 13.3849C1.97028 18.7773 7.15528 21.8883 12.444 20.7476C15.4513 20.0217 17.9401 18.0514 19.2882 15.1478L14.7254 14.1108ZM9.12558 5.9185C11.1996 5.39999 13.3773 6.2296 14.6217 7.9925L5.08128 10.1702C5.39238 8.19989 7.05158 6.437 9.12558 5.9185Z" fill="#6F7287" stroke="#6F7287" stroke-width="1.037"/>
</svg>
