<svg width="230" height="28" viewBox="0 0 230 28" fill="none" xmlns="http://www.w3.org/2000/svg">
<path d="M196.752 12.3405H194.367L195.611 8.91835H198.1C198.204 8.71095 198.308 8.60725 198.411 8.39985C199.656 5.28885 202.663 3.21485 205.981 3.31855C209.092 3.21485 212.099 3.31855 215.21 3.31855C215.314 3.52595 215.21 3.73335 215.106 3.83705C213.447 8.39985 211.892 13.0664 210.233 17.6292C210.129 17.9403 210.025 18.2514 210.129 18.5625C210.751 18.6662 210.751 18.6662 211.788 17.007H213.758C213.343 18.5625 212.307 19.8069 210.958 20.5328C209.921 21.0513 208.677 21.155 207.433 21.0513C205.981 21.0513 204.737 19.8069 204.737 18.2514C204.737 17.8366 204.84 17.4218 205.048 17.1107C205.877 14.6219 206.811 12.0294 207.64 9.54055L208.988 5.49625C207.744 5.28885 206.603 5.39255 205.359 5.70365C205.048 5.80735 204.84 6.01475 204.737 6.22215C204.218 7.05175 203.7 7.88135 203.492 8.81465H206.396L205.151 12.2368H202.352C202.144 12.859 201.937 13.4812 201.73 14.1034C200.796 16.7996 200.07 19.4958 198.826 22.0883C197.996 24.0586 196.545 25.8215 194.575 26.7548C192.708 27.6881 190.53 27.7918 188.56 27.1696C188.145 27.0659 187.731 26.8585 187.316 26.5474C186.279 25.9252 185.968 24.5771 186.59 23.5401C187.108 22.5031 188.249 21.9846 189.39 22.2957C190.323 22.5031 191.049 23.4364 190.945 24.4734C190.945 24.8882 190.841 25.303 191.36 25.4067C191.878 25.5104 192.086 25.1993 192.397 24.8882C193.019 23.9549 193.434 22.9179 193.849 21.8809C194.989 18.7699 195.923 15.7626 197.063 12.6516C196.752 12.5479 196.752 12.4442 196.752 12.3405Z" fill="#6F7287" stroke="#6F7287" stroke-width="1.037"/>
<path d="M218.943 23.3329C219.047 20.0145 218.425 16.6961 217.18 13.6888C217.077 13.3777 216.869 13.1703 216.766 12.8592C216.247 12.1333 215.729 12.1333 215.21 12.8592C215.003 13.1703 214.795 13.3777 214.692 13.6888H212.721C213.136 11.9259 214.173 10.4741 215.729 9.4371C217.803 8.1927 219.877 8.2964 221.328 10.4741C222.365 12.0296 222.884 13.8962 223.091 15.7628C223.195 17.0072 223.299 18.1479 223.195 19.3923C224.439 17.8368 225.269 16.0739 225.788 14.2073C225.58 14.1036 225.373 13.9999 225.165 13.9999C223.817 13.6888 223.091 12.3407 223.402 10.9926C223.506 10.6815 223.61 10.4741 223.714 10.2667C224.439 9.0223 225.891 8.5038 227.343 8.9186C228.691 9.4371 229.417 10.7852 229.106 12.1333C228.484 16.5924 226.202 20.0145 222.988 23.0218C221.328 24.681 219.254 25.9254 216.973 26.4439C215.625 26.8587 214.173 26.755 212.929 26.2365C211.581 25.8217 210.751 24.2662 211.166 22.9181C211.27 22.7107 211.27 22.607 211.373 22.3996C211.788 21.57 212.721 21.0515 213.655 21.1552C214.588 21.1552 215.418 21.7774 215.625 22.7107C215.625 22.9181 215.729 23.1255 215.729 23.3329C215.729 24.0588 215.936 24.2662 216.662 24.3699C217.388 24.4736 218.321 24.0588 218.943 23.3329Z" fill="#6F7287" stroke="#6F7287" stroke-width="1.037"/>
<path d="M163.777 13.2737L166.058 9.02205H171.347L167.821 14.3107L171.555 20.6364H166.266L163.777 15.5551H163.673V20.6364H159.318V6.63695C159.214 5.59994 159.94 4.56294 160.977 4.25184C161.807 3.94074 162.74 3.52594 163.673 3.21484V13.2737H163.777Z" fill="#6F7287" stroke="#6F7287" stroke-width="1.037"/>
<path d="M185.138 12.3406H183.686V8.91853H185.138V6.74083C185.035 5.49643 185.76 4.45943 186.901 4.14833L189.39 3.11133V9.02223H193.227L191.982 12.3406H189.286C189.286 13.8961 189.286 15.3479 189.286 16.7997C189.286 17.2145 189.597 17.5256 190.012 17.5256H190.116C190.531 17.5256 190.945 17.4219 191.36 17.4219V20.7403C189.701 21.2588 188.042 21.2588 186.383 20.7403C185.553 20.4292 185.035 19.5996 185.035 18.77C184.931 17.5256 184.827 16.2812 184.931 15.0368C185.138 14.1035 185.138 13.2739 185.138 12.3406Z" fill="#6F7287" stroke="#6F7287" stroke-width="1.037"/>
<path d="M138.372 9.02205H141.275V12.3404H138.372C138.372 13.8959 138.372 15.3477 138.372 16.7996C138.372 17.2143 138.786 17.4217 139.201 17.4217C139.616 17.4217 140.031 17.318 140.446 17.318V20.6364C138.89 21.0513 137.231 21.155 135.572 20.6364C134.535 20.2216 133.809 19.1846 133.912 18.1476C133.809 16.4884 133.912 14.8292 133.912 13.0663V12.2367H132.461V9.02205H133.912C133.912 8.08875 133.912 7.25915 133.912 6.42954C133.809 5.59994 134.327 4.77034 135.053 4.45924C135.986 3.94074 137.023 3.62964 138.164 3.21484L138.372 9.02205Z" fill="#6F7287" stroke="#6F7287" stroke-width="1.037"/>
<path d="M157.555 9.02217L157.141 12.6517C155.896 12.4443 154.652 12.0295 153.926 13.4813C153.304 14.5183 153.407 15.7627 154.133 16.696C154.963 17.733 156.104 17.3182 157.141 17.1108L157.452 20.6366C157.037 20.844 156.622 20.9477 156.207 20.9477C155.067 21.1551 153.926 21.1551 152.785 20.9477C151.126 20.6366 149.674 19.3922 149.259 17.733C148.741 16.0738 148.845 14.4146 149.363 12.8591C150.089 10.5777 152.059 9.02217 154.444 8.91847C155.585 8.71107 156.622 8.71107 157.555 9.02217Z" fill="#6F7287" stroke="#6F7287" stroke-width="1.037"/>
<path d="M147.393 20.6369H143.141V9.02246H147.393V20.6369Z" fill="#6F7287" stroke="#6F7287" stroke-width="1.037"/>
<path d="M147.912 5.60013C147.912 7.05193 146.771 8.19263 145.319 8.19263C143.867 8.19263 142.727 7.05193 142.727 5.60013C142.83 4.25203 143.971 3.11133 145.319 3.11133C146.667 3.11133 147.808 4.25203 147.912 5.60013Z" fill="#6F7287" stroke="#6F7287" stroke-width="1.037"/>
<path d="M177.672 8.71101C174.872 8.50361 172.28 10.3702 171.761 13.1701C171.554 14.3108 171.45 15.4515 171.658 16.4885C171.865 18.6662 173.524 20.4291 175.702 20.7402C176.946 20.9476 178.295 20.9476 179.643 20.7402C180.576 20.6365 181.509 20.4291 182.339 20.0143C182.235 18.9773 182.131 17.9403 181.924 16.9033L181.198 17.1107C179.954 17.5255 178.606 17.6292 177.258 17.4218C176.532 17.3181 176.013 16.7996 176.013 16.0737H182.65C182.65 15.5552 182.754 15.1404 182.754 14.6219C182.857 11.6146 181.509 8.81471 177.672 8.71101ZM175.909 13.3775C175.806 12.5479 176.428 11.822 177.154 11.7183C177.258 11.7183 177.258 11.7183 177.361 11.7183C178.191 11.7183 178.606 12.3405 178.502 13.3775H175.909Z" fill="#6F7287" stroke="#6F7287" stroke-width="1.037"/>
<path d="M56.5553 20.7404V10.7852H54.4813V7.4668H56.5553V2.8003L60.0811 1.9707V7.4668H62.7773V10.7852H60.0811V20.7404H56.5553Z" fill="#6F7287" stroke="#6F7287" stroke-width="1.037"/>
<path d="M18.8102 20.7404L13.5215 7.4668H17.2547L20.5731 16.4887L23.9952 7.4668H27.7284L22.4397 20.7404H18.8102Z" fill="#6F7287" stroke="#6F7287" stroke-width="1.037"/>
<path d="M64.0214 20.7404V1.14112L67.4435 0.311523V8.40013C68.4805 7.57053 69.8286 7.15573 71.1767 7.15573C75.0136 7.15573 78.1246 10.2667 78.1246 14.1036C78.1246 17.9405 75.0136 21.0515 71.1767 21.0515C69.8286 21.0515 68.5842 20.6367 67.4435 19.8071V20.7404H64.0214ZM67.3398 14.311C67.4435 16.385 69.2064 17.9405 71.2804 17.8368C73.3544 17.7331 74.9099 15.9702 74.8062 13.8962C74.7025 11.9259 73.0433 10.3704 71.073 10.3704C69.1027 10.3704 67.4435 11.9259 67.3398 13.8962V14.311Z" fill="#6F7287" stroke="#6F7287" stroke-width="1.037"/>
<path d="M87.1456 2.80044C87.1456 1.55604 88.0789 0.519043 89.3233 0.519043H89.427C90.6714 0.519043 91.7084 1.45234 91.7084 2.69674V2.80044C91.7084 4.04484 90.7751 5.08184 89.5307 5.08184C89.5307 5.08184 89.5307 5.08184 89.427 5.08184C88.1826 5.08184 87.1456 4.14854 87.1456 2.80044ZM87.6641 20.7406V7.46695H91.0862V20.7406H87.6641Z" fill="#6F7287" stroke="#6F7287" stroke-width="1.037"/>
<path d="M86.5237 7.4668C85.1756 7.4668 83.8274 7.7779 82.6867 8.6075V7.4668H79.2646V20.7404H82.6867V14.2073C82.6867 12.1333 83.2053 10.9926 86.5237 10.8889V7.4668Z" fill="#6F7287" stroke="#6F7287" stroke-width="1.037"/>
<path d="M94.4043 20.7404V10.7852H92.3303V7.46679H94.4043V2.80029H97.9301V7.46679H100.626V10.7852H97.9301V20.7404H94.4043Z" fill="#6F7287" stroke="#6F7287" stroke-width="1.037"/>
<path d="M36.646 16.1779C35.5053 17.9408 33.1202 18.3556 31.461 17.2149C31.0462 16.9038 30.7351 16.5927 30.424 16.1779L37.1645 14.6224L38.3052 14.415L40.3792 13.8965C40.3792 13.4817 40.2755 12.9632 40.1718 12.5484C39.3422 8.81517 35.609 6.43007 31.8758 7.36337C28.1426 8.29667 25.7575 11.9262 26.6908 15.6594C27.6241 19.3926 31.2536 21.7777 34.9868 20.8444C37.0608 20.3259 38.8237 18.8741 39.757 16.9038L36.646 16.1779ZM32.7054 10.4744C34.1572 10.1633 35.7127 10.6818 36.646 11.9262L29.9055 13.4817C30.0092 12.0299 31.1499 10.7855 32.7054 10.4744Z" fill="#6F7287" stroke="#6F7287" stroke-width="1.037"/>
<path d="M110.581 16.1778C109.441 17.9407 107.055 18.3555 105.396 17.2148C104.981 16.9037 104.67 16.5926 104.359 16.1778L111.203 14.6223L112.344 14.4149L114.418 13.8964C114.314 10.0595 111.1 7.05222 107.367 7.15592C103.53 7.25962 100.522 10.4743 100.626 14.2075C100.73 18.0444 103.944 21.0517 107.678 20.948C108.092 20.948 108.611 20.8443 109.026 20.7406C111.1 20.2221 112.863 18.7703 113.796 16.8L110.581 16.1778ZM106.641 10.4743C108.092 10.1632 109.648 10.6817 110.581 11.9261L103.841 13.4816C104.048 12.0298 105.189 10.7854 106.641 10.4743Z" fill="#6F7287" stroke="#6F7287" stroke-width="1.037"/>
<path d="M10.8258 16.1779C10.3073 17.0075 9.47767 17.526 8.54437 17.7334C7.09257 18.0445 5.43337 17.526 4.60377 16.1779L11.3443 14.6224L12.485 14.415L14.559 13.8965C14.559 13.4817 14.4553 12.9632 14.3516 12.5484C13.522 8.81517 9.78877 6.43007 6.05557 7.36337C2.32237 8.29667 -0.0627315 11.9262 0.870569 15.6594C1.80387 19.3926 5.43337 21.7777 9.16657 20.8444C11.3443 20.3259 13.1072 18.8741 13.9368 16.9038L10.8258 16.1779ZM6.88517 10.4744C8.33697 10.1633 9.89247 10.6818 10.8258 11.9262L4.08527 13.4817C4.29267 12.0299 5.43337 10.7855 6.88517 10.4744Z" fill="#6F7287" stroke="#6F7287" stroke-width="1.037"/>
<path d="M50.4376 20.7405V13.5852C50.4376 10.9927 49.0895 10.4742 47.7414 10.4742C46.3933 10.4742 45.0452 10.9927 45.0452 13.5852V20.7405H41.623V7.46686H45.0452V8.40016C45.9785 7.57056 47.2228 7.15576 48.5709 7.15576C51.4745 7.15576 53.9634 8.81496 53.9634 13.0667V20.7405H50.4376Z" fill="#6F7287" stroke="#6F7287" stroke-width="1.037"/>
<path d="M123.647 18.0445C123.335 18.0445 123.128 17.8371 123.128 17.526V10.5781C123.128 10.267 123.335 10.0596 123.647 10.0596C123.958 10.0596 124.165 10.267 124.165 10.5781V17.6297C124.165 17.8371 123.958 18.0445 123.647 18.0445Z" fill="#6F7287" stroke="#6F7287" stroke-width="1.037"/>
<path d="M127.172 14.622H120.225C119.913 14.622 119.706 14.4146 119.706 14.1035C119.706 13.7924 119.913 13.585 120.225 13.585H127.172C127.484 13.585 127.691 13.7924 127.691 14.1035C127.587 14.4146 127.38 14.622 127.172 14.622Z" fill="#6F7287" stroke="#6F7287" stroke-width="1.037"/>
</svg>
