<svg width="110" height="20" viewBox="0 0 110 20" fill="none" xmlns="http://www.w3.org/2000/svg">
<g clip-path="url(#clip0_1_991)">
<path fill-rule="evenodd" clip-rule="evenodd" d="M102.453 9.72223C103.934 9.38673 105.412 9.99448 106.235 11.1434L99.6887 12.6246C99.9148 11.2386 100.972 10.0572 102.453 9.72223ZM106.272 15.1727C105.754 15.9221 104.973 16.4484 104.084 16.6462C102.593 16.9839 101.105 16.3657 100.285 15.2019L106.852 13.7158L107.922 13.4738L109.967 13.0112C109.954 12.5717 109.897 12.1346 109.796 11.7066C108.964 8.17233 105.367 5.96903 101.761 6.78468C98.1561 7.60088 95.9081 11.1275 96.7407 14.6612C97.5727 18.1955 101.17 20.3994 104.775 19.5837C106.9 19.1025 108.552 17.6807 109.382 15.8707L106.272 15.1727Z" fill="#F05537"/>
<path fill-rule="evenodd" clip-rule="evenodd" d="M90.8187 19.4049V10.0351H88.7966V6.84292H90.8187V2.44897H94.2523V6.84292H96.8314V10.0351H94.2523V19.4049H90.8187Z" fill="#F05537"/>
<path fill-rule="evenodd" clip-rule="evenodd" d="M84.2593 19.405H87.5753V6.84298H84.2593V19.405ZM83.8277 2.43583C83.8277 1.27313 84.7444 0.400827 85.9311 0.400827C87.1172 0.400827 88.007 1.27313 88.007 2.43583C88.007 3.59908 87.1172 4.49723 85.9311 4.49723C84.7444 4.49723 83.8277 3.59908 83.8277 2.43583ZM83.1045 6.87818C81.4097 6.96618 80.4099 7.22633 79.3926 7.96333V6.84298H76.0788V19.405H79.3926V13.245C79.3926 11.3068 79.8655 10.204 83.1045 10.0957V6.87818ZM64.6274 13.3214C64.7099 15.1546 66.3052 16.6918 68.2579 16.6918C70.2382 16.6918 71.861 15.0737 71.861 13.1597C71.861 11.2721 70.2387 9.65458 68.2579 9.65458C66.3052 9.65458 64.7099 11.2182 64.6274 13.025V13.3214ZM61.3939 19.405V0.849077L64.7099 0.098877V7.77798C65.7344 6.95848 66.9481 6.61473 68.2689 6.61473C72.0436 6.61473 75.0631 9.52203 75.0631 13.1696C75.0631 16.7903 72.0436 19.7504 68.2689 19.7504C66.9475 19.7504 65.7344 19.4072 64.7099 18.5877V19.4055L61.3939 19.405Z" fill="#F05537"/>
<path fill-rule="evenodd" clip-rule="evenodd" d="M54.3358 19.4049V9.97071H52.3137V6.84286H54.3358V2.44561L57.7694 1.66846V6.84286H60.3485V9.97071H57.7694V19.4049H54.3358Z" fill="#F05537"/>
<path fill-rule="evenodd" clip-rule="evenodd" d="M48.2586 19.4051V12.6934C48.2586 10.2619 46.9377 9.73331 45.6163 9.73331C44.2954 9.73331 42.9739 10.2355 42.9739 12.6406V19.4051H39.658V6.84306H42.9739V7.77751C43.702 7.24896 44.5918 6.61426 46.3449 6.61426C49.1484 6.61426 51.5746 8.22686 51.5746 12.1649V19.4051H48.2586ZM31.2608 9.72231C32.7422 9.38681 34.2204 9.99456 35.0431 11.1435L28.4969 12.6247C28.7224 11.2387 29.7793 10.0573 31.2608 9.72231ZM35.0799 15.1728C34.5622 15.9223 33.7805 16.4486 32.8913 16.6463C31.4005 16.984 29.9129 16.3658 29.093 15.202L35.6601 13.7159L36.7291 13.4739L38.7748 13.0113C38.7624 12.5718 38.7053 12.1347 38.6043 11.7067C37.7718 8.17241 34.1742 5.96911 30.569 6.78476C26.9638 7.60096 24.7157 11.1276 25.5483 14.6613C26.3803 18.1956 29.9778 20.3995 33.5831 19.5838C35.7074 19.1026 37.3599 17.6808 38.1891 15.8708L35.0799 15.1728Z" fill="#F05537"/>
<path fill-rule="evenodd" clip-rule="evenodd" d="M17.7362 19.405L12.5868 6.84302H16.1997L19.4618 15.3625L22.7514 6.84302H26.3643L21.2144 19.405H17.7362Z" fill="#F05537"/>
<path fill-rule="evenodd" clip-rule="evenodd" d="M6.08518 9.71903C7.56664 9.38353 9.04481 9.99128 9.86748 11.1402L3.32131 12.6219C3.54677 11.2359 4.60371 10.0545 6.08518 9.71903ZM9.90433 15.1695C9.38667 15.9193 8.60494 16.4457 7.71567 16.6435C6.2254 16.9807 4.73734 16.363 3.91742 15.1992L10.4845 13.7131L11.5541 13.4711L13.5986 13.008C13.5862 12.5687 13.5291 12.1318 13.4282 11.704C12.5962 8.16968 8.99862 5.96583 5.39393 6.78148C1.7876 7.59768 -0.460448 11.1248 0.372121 14.6591C1.20469 18.1934 4.80168 20.3967 8.40691 19.5811C10.5318 19.1004 12.1843 17.6781 13.013 15.8686L9.90378 15.1701L9.90433 15.1695Z" fill="#F05537"/>
</g>
<defs>
<clipPath id="clip0_1_991">
<rect width="110" height="19.8" fill="white" transform="translate(0 0.0900879)"/>
</clipPath>
</defs>
</svg>
