<svg width="25" height="24" viewBox="0 0 25 24" fill="none" xmlns="http://www.w3.org/2000/svg">
<g clip-path="url(#clip0_1_2230)">
<path fill-rule="evenodd" clip-rule="evenodd" d="M11.0727 5.85624C13.7091 5.2608 16.3398 6.34008 17.8045 8.38104L6.15343 11.0136C6.55519 8.55048 8.43631 6.45192 11.0727 5.85624ZM17.8695 15.5402C16.9887 16.8175 15.6306 17.7842 13.975 18.1582C11.3214 18.7577 8.67343 17.6599 7.21447 15.5926L18.902 12.9521L20.8054 12.522L24.445 11.6998C24.423 10.919 24.3214 10.1425 24.1419 9.38232C22.6606 3.10344 16.2579 -0.811677 9.84151 0.637923C3.42511 2.08752 -0.575686 8.35296 0.905834 14.6321C2.38711 20.911 8.78983 24.8261 15.2062 23.3765C18.987 22.5223 21.9279 19.9961 23.4037 16.7803L17.8695 15.5402Z" fill="#F05537"/>
</g>
<defs>
<clipPath id="clip0_1_2230">
<rect width="24" height="24" fill="white" transform="translate(0.5)"/>
</clipPath>
</defs>
</svg>
