<svg width="24" height="24" viewBox="0 0 24 24" fill="none" xmlns="http://www.w3.org/2000/svg">
<path fill-rule="evenodd" clip-rule="evenodd" d="M14.926 13.4259C15.7832 12.1931 16.147 10.6837 15.9455 9.19572C15.744 7.70776 14.992 6.34941 13.8379 5.3889C12.6837 4.42839 11.2114 3.93554 9.71156 4.00766C8.21175 4.07979 6.79349 4.71165 5.73684 5.77847C4.68019 6.8453 4.06195 8.26954 4.0042 9.76997C3.94645 11.2704 4.45339 12.738 5.42491 13.8828C6.39644 15.0277 7.76193 15.7667 9.25176 15.9539C10.7416 16.1411 12.2475 15.7629 13.472 14.8939L18.5 19.9999L20 18.4999L14.926 13.4259ZM10 13.9999C11.0609 13.9999 12.0783 13.5785 12.8284 12.8284C13.5786 12.0782 14 11.0608 14 9.99994C14 8.93908 13.5786 7.92166 12.8284 7.17152C12.0783 6.42137 11.0609 5.99994 10 5.99994C8.93915 5.99994 7.92173 6.42137 7.17158 7.17152C6.42144 7.92166 6.00001 8.93908 6.00001 9.99994C6.00001 11.0608 6.42144 12.0782 7.17158 12.8284C7.92173 13.5785 8.93915 13.9999 10 13.9999Z" fill="#3A3247"/>
</svg>
