<svg width="41" height="25" viewBox="0 0 41 25" fill="none" xmlns="http://www.w3.org/2000/svg">
<mask id="mask0_1_722" style="mask-type:luminance" maskUnits="userSpaceOnUse" x="4" y="1" width="34" height="22">
<path d="M4.24316 1.74695H37.5765V22.2469H4.24316V1.74695Z" fill="white"/>
</mask>
<g mask="url(#mask0_1_722)">
<path d="M37.5598 12.188C37.5598 11.348 37.4448 10.736 37.1998 10.1H21.2432V13.89H30.6098C30.4215 14.833 29.4015 16.252 27.1365 17.205L27.1032 17.332L32.1498 19.681L32.4998 19.702C35.7098 17.92 37.5598 15.298 37.5598 12.188Z" fill="#4285F4"/>
<path d="M21.2431 22.1759C25.8314 22.1759 29.6831 21.2679 32.4981 19.7019L27.1348 17.2049C25.6981 17.8069 23.7731 18.2259 21.2414 18.2259C16.7464 18.2259 12.9331 16.4449 11.5731 13.9819L11.3731 13.9919L6.12644 16.4319L6.05811 16.5469C8.85311 19.8839 14.5948 22.1769 21.2414 22.1769L21.2431 22.1759Z" fill="#34A853"/>
<path d="M11.5715 13.9819C11.2002 13.3317 11.0087 12.6493 11.0048 11.9619C11.0048 11.2579 11.2132 10.5769 11.5548 9.94193L11.5432 9.80593L6.2315 7.32593L6.05816 7.37593C4.86718 8.79879 4.24571 10.3687 4.24316 11.9609C4.24316 13.6069 4.90483 15.1619 6.0565 16.5469L11.5715 13.9819Z" fill="#FBBC05"/>
<path d="M21.2431 5.69595C24.4331 5.69595 26.5864 6.52495 27.8131 7.21695L32.6114 4.40295C29.6648 2.75695 25.8314 1.74695 21.2414 1.74695C14.5948 1.74695 8.85311 4.03895 6.05811 7.37695L11.5531 9.93995C12.9331 7.47695 16.7464 5.69495 21.2414 5.69495" fill="#EB4335"/>
</g>
</svg>
